<svg xmlns="http://www.w3.org/2000/svg" fill="none" viewBox="0 0 289 61" height="61" width="289">
<g clip-path="url(#clip0_6113_11484)">
<rect fill="white" transform="translate(0 0.395264)" height="59.7277" width="288.888"></rect>
<path fill="url(#paint0_linear_6113_11484)" d="M58.426 30.2597L59.5371 29.1486C59.7913 28.8922 59.7913 28.4851 59.5371 28.2264L52.2836 20.9751V10.7144C52.2836 10.3579 51.9878 10.0599 51.6313 10.0599H50.0614V8.48776C50.0614 8.13464 49.7701 7.83775 49.4069 7.83775H39.1507L31.8982 0.587567C31.6418 0.331162 31.2302 0.331162 30.9738 0.587567L29.8627 1.69866L28.7517 0.587567C28.4975 0.331162 28.0837 0.331162 27.8317 0.587567L20.5782 7.83888H10.3186C9.95987 7.83888 9.66411 8.13689 9.66411 8.48889V10.0611H8.09644C7.73769 10.0611 7.44193 10.3579 7.44193 10.7156V20.9751L0.190617 28.2264C-0.063539 28.484 -0.063539 28.8922 0.190617 29.1486L1.30395 30.2597L0.190617 31.3708C-0.063539 31.6283 -0.063539 32.0365 0.190617 32.2907L7.44193 39.5465V49.8061C7.44193 49.9759 7.51503 50.1434 7.63536 50.2671C7.75794 50.3875 7.921 50.4561 8.09644 50.4561H9.66411V52.0282C9.66411 52.3892 9.95987 52.6782 10.3186 52.6782H20.5782L27.8317 59.9341C28.0837 60.186 28.4975 60.186 28.7517 59.9341L29.8627 58.823L30.9738 59.9341C31.2302 60.186 31.6418 60.186 31.8982 59.9341L39.1518 52.6782H49.408C49.7701 52.6782 50.0625 52.3881 50.0625 52.0282V50.4561H51.6324C51.9889 50.4561 52.2847 50.1659 52.2847 49.8061V39.5465L59.5382 32.2907C59.7924 32.0365 59.7924 31.6283 59.5382 31.3708L58.4272 30.2597H58.426ZM58.1561 28.6875L57.5084 29.342L52.2836 24.1161V22.8138L58.1561 28.6886V28.6875ZM40.8342 49.1561H39.5285L40.5766 48.1136C41.8193 46.8664 42.7336 45.3493 43.2858 43.6737C44.9265 43.1395 46.4436 42.241 47.7178 40.9713L48.7602 39.9277V41.2322L40.8353 49.1572L40.8342 49.1561ZM48.7591 43.0721V49.1561H42.6774L48.7591 43.0721ZM24.2578 51.3771L23.3379 50.4549H24.8134C26.6116 50.4549 28.3221 50.0175 29.8627 49.2314C31.4057 50.0175 33.1128 50.4549 34.9132 50.4549H36.3887L35.4665 51.3771H24.2578ZM34.1643 52.6771L29.8616 56.9798L25.559 52.6771H34.1643ZM10.972 41.23V39.9255L12.01 40.9691C13.2549 42.2118 14.772 43.1305 16.4487 43.6793C16.9863 45.3201 17.8826 46.8349 19.1556 48.1079L20.1981 49.1538H18.8958L10.9731 41.2289L10.972 41.23ZM17.0515 49.1549H10.972V43.0709L17.0515 49.1549ZM8.74869 24.6559L9.66523 23.7337V25.2058C9.66523 27.0108 10.1083 28.7201 10.891 30.2586C10.1094 31.7992 9.66523 33.5086 9.66523 35.3091V36.7845L8.74532 35.8624L8.74869 24.6548V24.6559ZM7.44305 34.5635L3.1449 30.2586L7.44305 25.9559V34.5623V34.5635ZM18.8958 11.3656H20.1981L19.1556 12.4114C17.8826 13.6845 16.9863 15.1993 16.4487 16.84C14.772 17.39 13.2549 18.3042 12.01 19.5503L10.972 20.5939V19.2894L18.8947 11.3644L18.8958 11.3656ZM10.9731 17.4484V11.3656H17.0526L10.9731 17.4484ZM35.4677 9.14339L36.3898 10.0611H34.9144C33.1139 10.0611 31.4057 10.5019 29.8639 11.2846C28.3232 10.503 26.6138 10.0611 24.8145 10.0611H23.339L24.2589 9.14339H35.4677ZM25.5601 7.83888L29.8627 3.53847L34.1654 7.83888H25.5601ZM48.7591 19.2905V20.595L47.7166 19.5514C46.4425 18.2806 44.9254 17.3821 43.2846 16.8445C42.737 15.1723 41.8193 13.6507 40.5755 12.4114L39.5274 11.3656H40.8331L48.758 19.2905H48.7591ZM42.6774 11.3656H48.7591V17.4484L42.6774 11.3656ZM50.0603 20.5905L50.9802 21.5127V22.8172L50.0603 21.8928V20.5905ZM48.0293 28.9001C46.8451 27.1806 45.1942 25.74 43.2419 24.7222C43.6614 23.3986 43.8818 22.021 43.8818 20.6468C43.8818 19.873 43.8132 19.1139 43.6726 18.3773C44.8208 18.862 45.8791 19.5548 46.7888 20.4713L48.7569 22.4315V25.2069C48.7569 26.507 48.5005 27.7496 48.0281 28.9012L48.0293 28.9001ZM48.758 35.3102V38.0857L46.79 40.0492C45.8802 40.9657 44.8219 41.6585 43.6737 42.1432C43.8132 41.4066 43.8829 40.6475 43.8829 39.8737C43.8829 38.4973 43.6625 37.1219 43.243 35.7938C45.1953 34.7749 46.8462 33.3388 48.0304 31.6193C48.5027 32.7698 48.7591 34.0124 48.7591 35.3091L48.758 35.3102ZM11.6929 31.6204C12.8804 33.3399 14.5336 34.7805 16.4892 35.7983C15.8268 37.9001 15.6739 40.0829 16.054 42.1353C14.89 41.6427 13.8262 40.9432 12.931 40.0492L10.9709 38.0857V35.3102C10.9709 34.0135 11.225 32.7709 11.6917 31.6204H11.6929ZM10.972 25.2058V22.4303L12.9321 20.4702C13.8262 19.5705 14.89 18.8767 16.0551 18.3796C15.675 20.4365 15.8291 22.6193 16.4903 24.7211C14.5347 25.74 12.8815 27.1795 11.694 28.8989C11.2273 27.7485 10.9731 26.5047 10.9731 25.2047L10.972 25.2058ZM42.584 20.6456C42.584 21.8332 42.3973 23.0151 42.0476 24.1678C40.5092 23.5369 38.8223 23.1568 37.0443 23.0804C36.9679 21.299 36.5833 19.611 35.9524 18.0748C38.0486 17.4406 40.2258 17.3776 42.2264 17.8893C42.4513 18.7676 42.5829 19.6965 42.5829 20.6456H42.584ZM18.1187 35.1246C18.6945 33.7301 19.5312 32.3908 20.6164 31.1908L22.6677 33.2398V36.1356C21.0483 36.0603 19.5098 35.7027 18.1187 35.1246ZM35.7578 32.7012L32.302 36.1548H27.4201L23.9688 32.7012V27.8171L27.4201 24.3613H32.302L35.7578 27.8205V32.7V32.7012ZM37.0601 29.1194L38.1982 30.2586L37.0601 31.3989V29.1194ZM34.1429 36.1536L35.7578 34.5387V36.1536H34.1429ZM25.5815 36.1536H23.9699V34.5387L25.5815 36.1536ZM22.6677 31.3978L21.5296 30.2574L22.6677 29.1182V31.3978ZM25.5815 24.3613L23.9699 25.975V24.3613H25.5815ZM34.1429 24.3613H35.7578V25.9784L34.1429 24.3613ZM32.8406 23.0635L30.7973 21.0122C31.9972 19.9225 33.3321 19.0881 34.7288 18.51C35.3046 19.9045 35.6622 21.4418 35.7398 23.0624H32.8395L32.8406 23.0635ZM31.0019 23.0635H28.7213L29.8616 21.9209L31.0019 23.0635ZM26.8826 23.0635H23.9845C24.061 21.4418 24.4175 19.9057 24.9955 18.5112C26.4159 19.1005 27.7519 19.9439 28.9271 21.0134L26.8826 23.0646V23.0635ZM22.6665 27.2795L20.6153 29.3285C19.5301 28.1252 18.6923 26.7892 18.1176 25.3947C19.5087 24.8178 21.0471 24.4591 22.6665 24.3804V27.2807V27.2795ZM26.8826 37.4548L28.9271 39.5038C27.7508 40.571 26.4159 41.4144 24.9955 42.0071C24.4186 40.6103 24.0621 39.0753 23.9845 37.4548H26.8826ZM28.7213 37.4548H31.0019L29.8616 38.5928L28.7213 37.4548ZM32.8406 37.4548H35.7409C35.6645 39.0764 35.3057 40.6103 34.7299 42.0071C33.3332 41.4257 31.9972 40.5946 30.7984 39.5038L32.8418 37.4548H32.8406ZM37.0601 33.2387L39.1068 31.1897C40.1785 32.3683 41.022 33.7032 41.609 35.1235C40.2123 35.7004 38.6772 36.0592 37.0601 36.1345V33.2387ZM39.1068 29.3285L37.0601 27.2795V24.3792C38.6772 24.458 40.2123 24.8167 41.6101 25.3902C41.0209 26.8083 40.1785 28.1443 39.1068 29.3285ZM35.4013 16.8817C34.3824 14.9294 32.943 13.2762 31.2212 12.0887C32.3739 11.6197 33.6211 11.3633 34.9132 11.3633H37.691L39.6511 13.3268C40.5497 14.2209 41.2491 15.2847 41.7395 16.4509C39.6871 16.0708 37.5043 16.2181 35.4024 16.8805L35.4013 16.8817ZM34.1755 17.3304C32.6371 17.977 31.1718 18.898 29.8616 20.1025C28.5751 18.9239 27.1098 17.9882 25.5511 17.3304C26.5936 15.3983 28.0825 13.8183 29.8616 12.7657C31.6407 13.8172 33.1364 15.3972 34.1755 17.3304ZM24.323 16.8772C22.9994 16.4611 21.6207 16.2373 20.2453 16.2373C19.4727 16.2373 18.7125 16.3081 17.9804 16.4442C18.4628 15.2982 19.1601 14.24 20.0721 13.328L22.0345 11.3644H24.8122C26.1089 11.3644 27.3516 11.6209 28.502 12.0898C26.7825 13.2774 25.3442 14.9271 24.3242 16.8794L24.323 16.8772ZM20.2453 17.5395C21.4329 17.5395 22.6193 17.7251 23.7698 18.0737C23.1411 19.611 22.7554 21.299 22.68 23.0792C20.9009 23.1557 19.2152 23.5358 17.6723 24.1667C17.0402 22.0682 16.9795 19.8944 17.489 17.8926C18.3718 17.6677 19.295 17.5395 20.2453 17.5395ZM16.9357 25.948C17.58 27.4786 18.5 28.9484 19.7055 30.2586C18.5 31.571 17.58 33.0385 16.9357 34.5713C15.0047 33.5333 13.4191 32.0354 12.371 30.2586C13.4191 28.484 15.0047 26.986 16.9357 25.948ZM17.6723 36.3471C19.2152 36.9813 20.9009 37.3614 22.68 37.439C22.7554 39.2159 23.1411 40.9039 23.7698 42.4445C22.6193 42.7932 21.4329 42.9787 20.2453 42.9787C19.2962 42.9787 18.3718 42.8505 17.489 42.62C16.9784 40.625 17.0402 38.4455 17.6723 36.3471ZM20.2453 44.2765C21.6207 44.2765 22.9994 44.0561 24.323 43.6366C25.343 45.5923 26.7814 47.242 28.5009 48.4296C27.3504 48.8985 26.1078 49.1549 24.8111 49.1549H22.0334L20.071 47.1903C19.1545 46.2738 18.4617 45.2166 17.9793 44.0741C18.7125 44.2101 19.4727 44.2765 20.2442 44.2765H20.2453ZM25.5511 43.1834C27.1098 42.5289 28.5751 41.5932 29.8616 40.4158C31.1718 41.6191 32.6371 42.5413 34.1755 43.1834C33.1353 45.1154 31.6396 46.7 29.8616 47.7559C28.0825 46.7 26.5936 45.1166 25.5511 43.1834ZM35.4013 43.6321C37.5032 44.2945 39.686 44.4452 41.7383 44.0639C41.248 45.2324 40.5485 46.2962 39.65 47.1903L37.6898 49.1549H34.9121C33.62 49.1549 32.3728 48.8985 31.2201 48.4296C32.9419 47.242 34.3824 45.5889 35.4002 43.6332L35.4013 43.6321ZM35.9524 42.4445C36.5833 40.9039 36.9667 39.2192 37.0443 37.439C38.8234 37.3626 40.5092 36.9824 42.0476 36.3516C42.3962 37.4975 42.584 38.6896 42.584 39.8737C42.584 40.8229 42.4525 41.7473 42.2275 42.6301C40.2258 43.1418 38.0497 43.0788 35.9535 42.4445H35.9524ZM42.7865 34.5702C42.1319 33.0138 41.1963 31.5462 40.0166 30.2574C41.1963 28.9709 42.1319 27.5078 42.7898 25.9469C44.7219 26.9849 46.3019 28.4817 47.3545 30.2574C46.303 32.0343 44.723 33.5311 42.7865 34.5702ZM38.2263 10.0599L37.3041 9.14227H38.6097L39.5297 10.0599H38.2251H38.2263ZM21.497 10.0599H20.1925L21.1169 9.14227H22.4191L21.497 10.0599ZM9.66298 21.8917L8.74645 22.8161V21.5116L9.66298 20.5894V21.8917ZM9.66298 38.6266V39.9244L8.74307 39.0067V37.7022L9.66298 38.6266ZM21.497 50.4549L22.4191 51.3771H21.1169L20.1925 50.4549H21.497ZM38.2263 50.4549H39.5308L38.6109 51.3771H37.3052L38.2274 50.4549H38.2263ZM50.0603 38.6266L50.9802 37.7022V39.0067L50.0603 39.9244V38.6266ZM50.0603 36.7845V35.3091C50.0603 33.5086 49.6194 31.7981 48.8367 30.2586C49.6183 28.7201 50.0603 27.0096 50.0603 25.2058V23.7337L50.9802 24.6559V35.8635L50.0603 36.7856V36.7845ZM52.2824 25.9593L56.5828 30.2574L52.2824 34.5623V25.9593ZM50.9802 11.3633V19.6684L50.0603 18.7507V11.3656H50.9802V11.3633ZM48.758 9.14115V10.0588H41.3729L40.4507 9.14115H48.758ZM31.4372 1.96631L37.3097 7.83888H36.0075L30.7871 2.61632L31.4372 1.96631ZM28.2906 1.96631L28.9451 2.61632L23.7225 7.83888H22.4146L28.2906 1.96631ZM10.9731 9.14227H19.277L18.3549 10.0599H10.9731V9.14227ZM8.74869 11.3644H9.66523V18.7518L8.74869 19.6695V11.3656V11.3644ZM1.5716 28.6875L7.44193 22.8127V24.115L2.22161 29.3409L1.5716 28.6864V28.6875ZM1.5716 31.8341L2.22161 31.1796L7.44193 36.4067V37.7044L1.5716 31.8341ZM8.7442 49.1561V40.851L9.66411 41.7687V49.1561H8.7442ZM10.972 51.3782V50.4561H18.3538L19.2759 51.3782H10.9731H10.972ZM28.2906 58.5553L22.4146 52.6794H23.7225L28.9451 57.9019L28.2906 58.5564V58.5553ZM31.4372 58.5553L30.7871 57.9008L36.0075 52.6782H37.3097L31.4372 58.5542V58.5553ZM48.7591 51.3782H40.4518L41.374 50.4561H48.7591V51.3782ZM50.9813 49.1561H50.0614V41.7687L50.9813 40.851V49.1561ZM52.2836 36.4067L57.5084 31.1796L58.1561 31.8341L52.2836 37.7044V36.4067Z"></path>
<path fill="#262626" d="M80.5249 41.9588L72.5826 21.9047C71.922 20.5149 70.9233 19.8226 69.5811 19.8226V18.269H81.3017V19.8226H79.5368C78.8551 19.8226 78.5116 19.9653 78.5116 20.2454C78.5116 20.7421 78.6067 21.2336 78.7917 21.7303L84.4037 36.6269L89.5559 22.4331C89.651 22.153 89.6986 21.762 89.6986 21.2706C89.6986 20.3035 88.6417 19.8226 86.5227 19.8226V18.269H95.2789V19.8226H93.9736C93.646 19.8226 93.3554 19.9653 93.107 20.2454C92.8586 20.5255 92.605 20.9376 92.346 21.4819L83.9809 42.2072L80.5197 41.9588H80.5249Z"></path>
<path fill="#404040" d="M102.811 41.6787V40.1938C104.998 40.1938 106.092 39.4752 106.092 38.0378V22.6128C106.092 20.7527 104.951 19.8226 102.668 19.8226V18.269H115.023V19.8226C112.93 19.8226 111.879 20.7527 111.879 22.6128V38.0378C111.879 39.4752 112.983 40.1938 115.197 40.1938V41.6787H102.805H102.811Z"></path>
<path fill="#262626" d="M127.527 41.9588V40.4739C129.973 40.4739 131.199 39.4857 131.199 37.5094V21.5506C131.199 20.8425 130.719 20.4938 129.752 20.4938C129.022 20.4938 128.393 20.6153 127.865 20.8637C127.337 21.112 126.877 21.4819 126.486 21.9734C126.095 22.4648 125.767 23.0831 125.498 23.8282C125.228 24.568 124.985 25.4346 124.774 26.4228L122.586 26.1057L123.574 18.269C124.187 18.3642 124.858 18.4329 125.587 18.4804C126.317 18.528 126.893 18.5491 127.315 18.5491H141.261C141.779 18.5491 142.413 18.528 143.168 18.4804C143.919 18.4329 144.606 18.3642 145.214 18.269V26.0001L143.168 26.1744C143.052 24.3143 142.656 22.9246 141.985 22.0104C141.314 21.0962 140.156 20.6311 138.508 20.6311C137.493 20.6311 136.991 20.9376 136.991 21.5506V37.5094C136.991 39.4857 138.238 40.4739 140.732 40.4739V41.9588H127.527Z"></path>
<path fill="#262626" d="M166.311 42.2494V40.8015C166.638 40.754 166.987 40.7064 167.352 40.6588C167.716 40.6113 168.044 40.5584 168.34 40.5003C168.636 40.4422 168.874 40.3735 169.064 40.2889C169.254 40.2044 169.344 40.1198 169.344 40.0247C169.344 39.9085 169.312 39.7711 169.254 39.6178C169.196 39.4646 169.132 39.2955 169.059 39.1052L167.505 34.7985C167.41 34.5396 167.177 34.3546 166.797 34.2489C166.422 34.1432 166.031 34.0904 165.634 34.0904H160.482C159.726 34.0904 159.272 34.3282 159.103 34.7985L157.972 38.3971C157.924 38.5134 157.887 38.6455 157.866 38.7829C157.84 38.9256 157.829 39.0788 157.829 39.2426C157.829 40.1621 158.828 40.6166 160.831 40.6166V42.2389H152.603V40.6166C153.919 40.5214 154.896 39.7235 155.536 38.2175L163.901 18.269L167.183 18.7288L175.41 39.417C175.505 39.676 175.659 39.8873 175.87 40.0511C176.081 40.215 176.324 40.3471 176.594 40.4369C176.863 40.532 177.144 40.606 177.424 40.6641C177.704 40.7223 177.978 40.7645 178.237 40.7857V42.2336H166.305L166.311 42.2494ZM163.484 24.066L160.693 30.8088C160.434 31.3742 160.308 31.7283 160.308 31.8657C160.308 32.0559 160.672 32.1458 161.401 32.1458H165.745C166.311 32.1458 166.591 32.0982 166.591 32.0031C166.591 31.8868 166.369 31.2527 165.92 30.0954L163.484 24.0607V24.066Z"></path>
<path fill="#262626" d="M186.012 41.6734V40.1885C188.036 40.1885 189.051 39.6495 189.051 38.5662V22.2217C189.051 20.6206 187.909 19.8226 185.626 19.8226V18.269H198.018V19.8226C195.899 19.8226 194.842 20.6206 194.842 22.2217V38.5662C194.842 39.343 195.524 39.7288 196.893 39.7288H197.495C198.531 39.7288 199.413 39.6971 200.143 39.639C200.872 39.5808 201.506 39.3695 202.05 39.0048C202.589 38.6402 203.081 38.0642 203.514 37.2769C203.947 36.4895 204.391 35.3745 204.84 33.9424L206.885 34.1538L205.755 41.6734H186.018H186.012Z"></path>
<path fill="#404040" d="M214.418 41.6787V40.1938C216.605 40.1938 217.699 39.4752 217.699 38.0378V22.6128C217.699 20.7527 216.558 19.8226 214.275 19.8226V18.269H226.63V19.8226C224.537 19.8226 223.486 20.7527 223.486 22.6128V38.0378C223.486 39.4752 224.59 40.1938 226.804 40.1938V41.6787H214.412H214.418Z"></path>
<path fill="#262626" d="M239.134 41.9588V40.4739C241.581 40.4739 242.807 39.4857 242.807 37.5094V21.5506C242.807 20.8425 242.326 20.4938 241.359 20.4938C240.629 20.4938 240.001 20.6153 239.472 20.8637C238.944 21.112 238.484 21.4819 238.093 21.9734C237.702 22.4648 237.374 23.0831 237.105 23.8282C236.835 24.568 236.592 25.4346 236.381 26.4228L234.193 26.1057L235.181 18.269C235.794 18.3642 236.465 18.4329 237.195 18.4804C237.924 18.528 238.5 18.5491 238.923 18.5491H252.868C253.386 18.5491 254.02 18.528 254.776 18.4804C255.526 18.4329 256.213 18.3642 256.821 18.269V26.0001L254.776 26.1744C254.659 24.3143 254.263 22.9246 253.592 22.0104C252.921 21.0962 251.764 20.6311 250.115 20.6311C249.1 20.6311 248.598 20.9376 248.598 21.5506V37.5094C248.598 39.4857 249.845 40.4739 252.34 40.4739V41.9588H239.134Z"></path>
<path fill="#262626" d="M270.25 41.6787V40.1938C272.601 40.1938 273.78 39.7341 273.78 38.8199V32.1458L268.025 22.6128C266.894 20.7527 265.626 19.8226 264.21 19.8226V18.269H275.967V19.8226C274.298 19.8226 273.463 20.1397 273.463 20.7738C273.463 21.0116 273.653 21.4185 274.028 22.0104L278.652 29.6727L282.959 22.0474C283.075 21.6933 283.133 21.223 283.133 20.6364C283.133 20.0974 282.214 19.8226 280.38 19.8226V18.269H288.888V19.8226C287.614 19.8226 286.684 20.2084 286.098 20.9852L279.672 31.9978V38.952C279.672 39.7764 280.803 40.1885 283.059 40.1885V41.6734H270.244L270.25 41.6787Z"></path>
</g>
<defs>
<linearGradient gradientUnits="userSpaceOnUse" y2="15.6221" x2="55.2165" y1="44.8961" x1="4.51127" id="paint0_linear_6113_11484">
<stop stop-color="#AB8DD0"></stop>
<stop stop-color="#E89E9B" offset="0.44"></stop>
<stop stop-color="#FAA582" offset="0.61"></stop>
<stop stop-color="#FDD695" offset="1"></stop>
</linearGradient>
<clipPath id="clip0_6113_11484">
<rect transform="translate(0 0.395264)" fill="white" height="59.7277" width="288.888"></rect>
</clipPath>
</defs>
</svg>
